<svg viewBox="0 0 56 56" fill="none" xmlns="http://www.w3.org/2000/svg">
  <circle cx="28" cy="28" r="28" fill="#26A17B"/>
  <path fill-rule="evenodd" clip-rule="evenodd" d="M28.0001 35.3C23.9961 35.3 20.7001 34.548 20.7001 33.628C20.7001 32.708 23.9961 31.956 28.0001 31.956C32.0041 31.956 35.3001 32.708 35.3001 33.628C35.3001 34.548 32.0041 35.3 28.0001 35.3ZM28.0001 30.8C22.6981 30.8 18.4001 31.776 18.4001 32.984V35.756C18.4001 36.964 22.6981 37.94 28.0001 37.94C33.3021 37.94 37.6001 36.964 37.6001 35.756V32.984C37.6001 31.776 33.3021 30.8 28.0001 30.8Z" fill="white"/>
  <path d="M31.08 29.4V26.6H35.28V23H20.72V26.6H24.92V29.4C21.112 29.708 18.4 30.632 18.4 31.724C18.4 33.012 22.712 34.048 28 34.048C33.288 34.048 37.6 33.012 37.6 31.724C37.6 30.632 34.888 29.708 31.08 29.4Z" fill="white"/>
  <path d="M28 33.04C32.864 33.04 36.82 32.276 36.82 31.332C36.82 30.388 32.864 29.624 28 29.624C23.136 29.624 19.18 30.388 19.18 31.332C19.18 32.276 23.136 33.04 28 33.04Z" fill="white"/>
  <rect x="24.64" y="18.2" width="6.72" height="11.2" fill="white"/>
</svg>
